<svg width="174" height="32" viewBox="0 0 174 32" fill="none" xmlns="http://www.w3.org/2000/svg">
<g clip-path="url(#clip0_2110_4043)">
<path d="M67.4487 4.78809V8.31206H64.0547V4.78809H67.4487ZM67.2586 11.1926V27.2008H64.2169V11.1926H67.2586Z" fill="#0F1847"/>
<path d="M83.5641 11.7005C84.6175 12.2763 85.4759 13.1524 86.03 14.2175C86.6741 15.4896 86.9875 16.9035 86.9414 18.3287V27.1997H83.8997V18.3956C83.9303 17.7809 83.8355 17.1665 83.6212 16.5895C83.4068 16.0126 83.0773 15.4851 82.6528 15.0396C82.2428 14.6284 81.7529 14.3056 81.2134 14.0911C80.6739 13.8766 80.0962 13.7748 79.5159 13.7923C78.6647 13.7742 77.8263 14.0014 77.1005 14.4467C76.4106 14.8771 75.8562 15.4938 75.5013 16.2255C75.125 16.9808 74.9333 17.8148 74.9421 18.6586V27.2051H71.9004V11.1972H74.7799V13.7587C75.368 12.8904 76.1512 12.172 77.0669 11.6612C77.9781 11.1422 79.0097 10.8722 80.0583 10.8782C81.2771 10.8557 82.4823 11.1385 83.5641 11.7005Z" fill="#0F1847"/>
<path d="M102.323 11.93C103.542 12.6245 104.527 13.6663 105.152 14.9225C105.84 16.3317 106.182 17.8852 106.147 19.4532C106.147 19.9007 106.136 20.2307 106.114 20.4432H92.9795C93.1783 21.6341 93.7932 22.7157 94.7149 23.4953C95.6365 24.2748 96.8049 24.7016 98.0119 24.6997C100.088 24.6997 101.561 23.9427 102.429 22.4288H105.566C105.05 23.9321 104.049 25.2212 102.72 26.0926C101.335 27.0426 99.6907 27.5407 98.0119 27.5188C96.5347 27.5389 95.0784 27.1685 93.7903 26.4449C92.5481 25.7496 91.5269 24.7184 90.8436 23.4693C90.1497 22.1519 89.7871 20.6851 89.7871 19.1959C89.7871 17.7068 90.1497 16.24 90.8436 14.9225C91.5251 13.6763 92.5395 12.6441 93.7735 11.9412C95.0588 11.2214 96.511 10.8532 97.9839 10.8731C99.4985 10.8331 100.996 11.1978 102.323 11.93ZM94.7018 14.7267C93.7993 15.5097 93.2047 16.5885 93.0243 17.7697H102.848C102.808 17.1798 102.65 16.6039 102.383 16.0764C102.116 15.5489 101.746 15.0804 101.294 14.6988C100.356 13.9136 99.1618 13.5015 97.9392 13.5411C96.7481 13.525 95.5937 13.9537 94.7018 14.7436V14.7267Z" fill="#0F1847"/>
<path d="M136.23 27.2008H133.032V8.79301L122.917 27.2008L112.852 8.91618V27.2008H109.648V4.78809H114.161L122.995 20.8299L131.83 4.78809H136.213L136.23 27.2008Z" fill="#1CB7F8"/>
<path d="M152.25 11.9299C153.47 12.6241 154.457 13.6658 155.084 14.9224C155.771 16.3321 156.11 17.8856 156.074 19.4531C156.074 19.9006 156.074 20.2306 156.046 20.4431H142.923C143.122 21.634 143.737 22.7156 144.658 23.4952C145.58 24.2747 146.748 24.7015 147.955 24.6996C150.024 24.6996 151.5 23.9445 152.373 22.4287H155.509C154.992 23.931 153.991 25.2196 152.663 26.0925C151.278 27.0418 149.634 27.5399 147.955 27.5187C146.478 27.5389 145.022 27.1684 143.734 26.4448C142.49 25.7512 141.469 24.7196 140.787 23.4692C140.093 22.1518 139.73 20.685 139.73 19.1958C139.73 17.7067 140.093 16.2399 140.787 14.9224C141.467 13.675 142.482 12.6424 143.717 11.9411C145 11.2208 146.451 10.8525 147.922 10.873C149.433 10.8336 150.927 11.1984 152.25 11.9299ZM144.634 14.7266C143.736 15.5129 143.142 16.5901 142.956 17.7696H152.809C152.767 17.18 152.608 16.6045 152.341 16.0772C152.074 15.5498 151.705 15.0812 151.254 14.6988C150.316 13.9144 149.122 13.5025 147.899 13.541C146.699 13.5179 145.533 13.9471 144.634 14.7435V14.7266Z" fill="#1CB7F8"/>
<path d="M173.999 4.62598V27.2006H170.957V24.8011C170.315 25.6379 169.493 26.3202 168.553 26.7978C167.623 27.2775 166.591 27.5251 165.545 27.5194C164.19 27.5332 162.86 27.1607 161.709 26.4455C160.547 25.7275 159.605 24.7039 158.986 23.4866C158.335 22.1503 157.996 20.6832 157.996 19.1965C157.996 17.7099 158.335 16.2428 158.986 14.9065C159.607 13.6886 160.548 12.6633 161.709 11.9418C162.861 11.2308 164.191 10.8606 165.545 10.8737C166.629 10.865 167.698 11.1283 168.654 11.6398C169.623 12.166 170.465 12.8995 171.12 13.7878V4.62598H173.999ZM168.62 24.0011C169.39 23.5251 170.012 22.8432 170.415 22.0323C170.835 21.1459 171.053 20.1774 171.053 19.1965C171.053 18.2157 170.835 17.2472 170.415 16.3608C170.012 15.5499 169.39 14.8679 168.62 14.3919C167.85 13.9212 166.962 13.6768 166.059 13.687C165.167 13.6736 164.289 13.9184 163.532 14.3919C162.774 14.873 162.165 15.5544 161.771 16.3608C161.351 17.2472 161.133 18.2157 161.133 19.1965C161.133 20.1774 161.351 21.1459 161.771 22.0323C162.165 22.8386 162.774 23.5201 163.532 24.0011C164.289 24.4727 165.167 24.7154 166.059 24.7003C166.962 24.7125 167.849 24.4702 168.62 24.0011Z" fill="#1CB7F8"/>
<path d="M26.6027 10.7169C29.5611 10.7169 31.9593 8.3178 31.9593 5.35843C31.9593 2.39905 29.5611 0 26.6027 0C23.6443 0 21.2461 2.39905 21.2461 5.35843C21.2461 8.3178 23.6443 10.7169 26.6027 10.7169Z" fill="#1CB7F8"/>
<path d="M5.33497 8.80409C7.23723 8.80409 8.77932 7.26149 8.77932 5.35859C8.77932 3.45569 7.23723 1.91309 5.33497 1.91309C3.43271 1.91309 1.89062 3.45569 1.89062 5.35859C1.89062 7.26149 3.43271 8.80409 5.33497 8.80409Z" fill="#0F1847"/>
<path d="M5.33483 29.0238C6.65344 29.0238 7.72238 27.9545 7.72238 26.6354C7.72238 25.3164 6.65344 24.2471 5.33483 24.2471C4.01622 24.2471 2.94727 25.3164 2.94727 26.6354C2.94727 27.9545 4.01622 29.0238 5.33483 29.0238Z" fill="#1CB7F8"/>
<path d="M27.7618 19.7947C26.6099 16.7575 24.3565 13.4688 21.4266 10.5378C18.4967 7.60693 15.2033 5.34731 12.1671 4.19508C11.5945 3.97097 11.0081 3.78414 10.4114 3.63574C10.6338 4.29982 10.7249 5.00077 10.6798 5.69965C10.9426 5.77796 11.2389 5.87305 11.4849 5.97932C14.2807 7.03646 17.3225 9.13386 20.0679 11.8802C22.8133 14.6265 24.91 17.6805 25.9724 20.466C26.9229 22.9663 26.9063 24.9407 25.9277 25.9419C24.9492 26.9431 22.9531 26.9376 20.4481 25.9867C17.6523 24.9296 14.6161 22.8319 11.8707 20.0856C9.12531 17.3393 7.02289 14.2852 5.9661 11.4997C5.85986 11.2201 5.7704 10.9406 5.68653 10.6889C5.56724 10.6889 5.44989 10.6889 5.33433 10.6889C4.7545 10.6884 4.17854 10.594 3.62891 10.4092C3.77868 11.0057 3.96543 11.5923 4.18805 12.1656C5.34549 15.1972 7.59331 18.486 10.5288 21.4225C13.4643 24.359 16.7522 26.613 19.7883 27.7652C21.0434 28.2773 22.3808 28.5577 23.7358 28.593C24.3868 28.6244 25.0376 28.5248 25.6494 28.3C26.2612 28.0752 26.8217 27.7298 27.2976 27.2843C28.8409 25.7517 29.0143 23.0836 27.7618 19.7947Z" fill="#0F1847"/>
<path d="M9.10938 1.56663C9.56347 2.02355 9.93264 2.55755 10.1997 3.14385C12.0099 2.33467 13.9706 1.91728 15.9533 1.91894C17.2926 1.9181 18.6254 2.1064 19.9121 2.47828C20.1734 1.87522 20.5157 1.31067 20.9297 0.800274C17.0353 -0.455249 12.8092 -0.181215 9.10938 1.56663Z" fill="#0F1847"/>
<path d="M2.28623 23.5867C2.65973 23.2123 3.09966 22.9106 3.58349 22.6972C2.56007 20.7935 1.98555 18.6808 1.90414 16.5208C1.82273 14.3607 2.23654 12.2108 3.11376 10.2353C2.52825 9.97008 1.99582 9.60039 1.54252 9.14453C0.445827 11.4648 -0.0797092 14.0142 0.00978352 16.5792C0.0992763 19.1442 0.801155 21.6506 2.05689 23.8888L2.28623 23.5867Z" fill="#0F1847"/>
<path d="M31.1708 11.0137C30.6624 11.4319 30.0977 11.7765 29.4934 12.0373C30.2742 14.7054 30.2482 17.5448 29.4187 20.1982C28.5891 22.8515 26.9932 25.2 24.8318 26.9476C22.6704 28.6952 20.0404 29.764 17.2729 30.019C14.5055 30.2741 11.7245 29.7041 9.28026 28.3809C9.06697 28.8649 8.76544 29.3048 8.39116 29.6785C8.3017 29.768 8.21224 29.852 8.11719 29.9303C10.926 31.5177 14.1489 32.2184 17.363 31.9407C20.5771 31.6629 23.6321 30.4196 26.1271 28.3738C28.6221 26.328 30.4405 23.5754 31.3436 20.4773C32.2467 17.3792 32.1923 14.0803 31.1876 11.0137H31.1708Z" fill="#0F1847"/>
<path d="M19.3283 23.3804C20.0384 22.7763 20.743 22.133 21.4251 21.4506C24.0445 18.9149 26.1467 15.8946 27.6149 12.5572C27.2798 12.6067 26.9415 12.6309 26.6028 12.6299C26.2436 12.6292 25.8849 12.6033 25.5293 12.5518C24.1576 15.3636 22.3093 17.9164 20.0664 20.097C19.2782 20.8874 18.4475 21.6343 17.5781 22.3344C18.1652 22.7259 18.7524 23.0728 19.3283 23.3804Z" fill="#1CB7F8"/>
<path d="M14.2344 24.666C13.3547 25.183 12.4347 25.6284 11.4834 25.9974C10.883 26.2348 10.264 26.4219 9.63263 26.5568C9.64418 27.2545 9.48886 27.9446 9.17969 28.5702C10.2024 28.4369 11.2051 28.1798 12.1656 27.8041C13.4937 27.2861 14.7673 26.6378 15.9678 25.8688C15.3863 25.4885 14.8103 25.0911 14.2344 24.666Z" fill="#1CB7F8"/>
<path d="M15.9688 6.12982C16.5279 6.49339 17.1262 6.89045 17.7022 7.32114C18.2613 6.98554 18.8483 6.68344 19.413 6.42615C19.3128 5.73433 19.3128 5.03167 19.413 4.33984C18.215 4.83503 17.0626 5.43404 15.9688 6.12982Z" fill="#1CB7F8"/>
<path d="M12.6098 8.6084C11.8941 9.21248 11.1951 9.85582 10.513 10.5382C7.57746 13.4691 5.32964 16.7579 4.17221 19.7951C3.79661 20.7559 3.53945 21.7591 3.40625 22.7821C4.03156 22.4728 4.72162 22.3175 5.4191 22.329C5.55394 21.6975 5.74096 21.0782 5.97824 20.4776C7.03503 17.6809 9.13186 14.6381 11.8829 11.8918C12.672 11.1044 13.5006 10.3577 14.3654 9.65442C13.7727 9.26661 13.1876 8.9179 12.6098 8.6084Z" fill="#1CB7F8"/>
<path d="M40.4549 10.1516C41.4384 8.41825 42.8693 6.98104 44.5981 5.9902C46.3682 4.96838 48.3809 4.44269 50.4244 4.46869C52.0096 4.45554 53.5797 4.77764 55.0317 5.41394C56.4437 6.03022 57.7049 6.94649 58.7277 8.09891C59.7679 9.27472 60.5491 10.6564 61.0203 12.1541H57.4641C56.8585 10.7994 55.8911 9.63818 54.6683 8.79807C53.4161 7.96014 51.9361 7.52854 50.43 7.56197C48.9773 7.54461 47.5486 7.93194 46.3035 8.68064C45.072 9.4189 44.0604 10.4733 43.3736 11.7346C42.6688 13.0496 42.2999 14.5186 42.2999 16.0107C42.2999 17.5028 42.6688 18.9718 43.3736 20.2868C44.0588 21.5492 45.0708 22.604 46.3035 23.3408C47.5486 24.0895 48.9773 24.4768 50.43 24.4594C51.9361 24.4929 53.4161 24.0613 54.6683 23.2233C55.8911 22.3832 56.8585 21.222 57.4641 19.8673H61.0203C60.5505 21.3656 59.7692 22.7476 58.7277 23.9225C57.7067 25.0769 56.4451 25.9933 55.0317 26.6072C53.5797 27.2435 52.0096 27.5656 50.4244 27.5524C48.3809 27.5784 46.3682 27.053 44.5981 26.0312C42.8693 25.0404 41.4384 23.6029 40.4549 21.8695C39.4573 20.084 38.9336 18.0728 38.9336 16.0274C38.9336 13.9819 39.4573 11.9707 40.4549 10.1852V10.1516Z" fill="#0F1847"/>
</g>
<defs>
<clipPath id="clip0_2110_4043">
<rect width="174" height="32" fill="white"/>
</clipPath>
</defs>
</svg>
